<svg xmlns="http://www.w3.org/2000/svg" version="1.1" xmlns:xlink="http://www.w3.org/1999/xlink" xmlns:svgjs="http://svgjs.dev/svgjs" viewBox="0 0 800 800"><defs><linearGradient x1="50%" y1="0%" x2="50%" y2="100%" id="uundulate-grad"><stop stop-color="hsl(162, 100%, 58%)" stop-opacity="1" offset="45%"></stop><stop stop-color="hsl(270, 73%, 53%)" stop-opacity="1" offset="100%"></stop></linearGradient></defs><g stroke-width="1" stroke="url(#uundulate-grad)" fill="none"><path d="M643.4552755419236 -102.49358222159765C761.6182935092143 117.25942548503076 987.2318124842675 556.4157015324913 911.9514885579649 794.295410715092C836.6711646316621 1032.1751198976926 474.7385524519203 1107.9202410573143 282.10972069566867 1039.3290218548852C89.48088893941713 970.7378026524559 72.36260701159677 651.0161680627086 -12.66690387204386 465.05755854343215C-97.69641475568449 279.09894902415533 -133.52421444651884 276.19811821872713 -126.0319315458081 146.7276961623577C-118.53964864509737 17.25727410598813 -74.78747383629195 -71.55740015233289 23.29605405136931 -156.40046732714183C121.37958193903057 -241.2435345019507 215.56916450443532 -271.74962734037877 344.76900231496757 -260.5190262767236C473.9688401254998 -249.28842521306836 525.2922575746328 -322.2465899282262 643.4552755419236 -102.49358222159765C761.6182935092143 117.25942548503076 987.2318124842675 556.4157015324913 911.9514885579649 794.295410715092 "></path><path d="M635.6018815255761 -86.28414923599667C749.9531892358577 126.38005177041794 968.2888527601028 551.3699963324766 895.4369263798096 781.5761665091868C822.5849999995166 1011.7823366858972 472.3276333739601 1085.0840668403698 285.9126349001683 1018.7054676122125C99.4976364263764 952.3268683840552 82.93155714138902 642.9188349101064 0.6449337056077411 462.9588902140322C-81.64168973017354 282.99894551795774 -116.31375394711 280.19168989980164 -109.06315759158349 154.8977330710569C-101.81256123605698 29.60377624231205 -59.471746904954955 -56.345908523805065 35.44779621213661 -138.45210256394267C130.36733932922812 -220.55829660408034 221.51854826349086 -250.08032193159136 346.55064937045745 -239.21199832160244C471.58275047742427 -228.34367471161352 521.2505738152948 -298.9483502424114 635.6018815255761 -86.28414923599667C749.9531892358577 126.38005177041794 968.2888527601028 551.3699963324766 895.4369263798096 781.5761665091868 "></path><path d="M627.7484875092289 -70.07468573281767C738.2880849625008 135.50070857338324 949.3458930359379 546.3243216500398 878.9223642016545 768.8569528208598C808.4988353673714 991.3895839916797 469.916714296 1062.2479231410032 289.71554910466784 998.0819438871179C109.51438391333568 933.9159646332323 93.50050727118128 634.8215322750818 13.956771283259343 460.8602524022101C-65.58696470466253 286.8989725293384 -99.1032934477011 284.18529209845406 -92.09438363735882 163.06780049733413C-85.08547382701653 41.95030889621421 -44.1560199736179 -41.134386377699 47.59953837290391 -120.50370728316545C139.35509671942577 -199.8730281886318 227.46793202254628 -228.41098600522582 348.33229642594745 -217.9049398489032C469.1966608293486 -207.3988936925806 517.2088900559569 -275.6500800390185 627.7484875092289 -70.07468573281767C738.2880849625008 135.50070857338324 949.3458930359379 546.3243216500398 878.9223642016545 768.8569528208598 "></path><path d="M619.8950934928816 -53.8652527472168C726.6229806891442 144.6213348587703 930.4029333117728 541.2786164500251 862.4078020234997 756.1377086149546C794.4126707352261 970.9968007798843 467.5057952180398 1039.4117489240587 293.5184633091675 977.4583896444451C119.53113140029507 915.5050303648318 104.06945740097353 626.7241991224794 27.268608860910945 458.76158407281014C-49.53223967915153 290.7989690231408 -81.89283294829227 288.17886377952834 -75.12560968313414 171.23783740603335C-68.35838641797608 54.296811032538244 -28.840293042280848 -25.922894749171178 59.751280533671206 -102.5553425199663C148.34285410962332 -179.18779029076143 233.41731578160193 -206.7416805964384 350.11394348143745 -196.59791189378205C466.8105711812731 -186.45414319112575 513.1672062966189 -252.35184035320378 619.8950934928816 -53.8652527472168C726.6229806891442 144.6213348587703 930.4029333117728 541.2786164500251 862.4078020234997 756.1377086149546 "></path><path d="M612.0416994765342 -37.65575872645957C714.9578764157875 153.7420221793136 911.4599735876081 536.2329722851664 845.8932398453444 743.4185254442054C780.3265061030806 950.604078603245 465.0948761400798 1016.5756357422702 297.32137751366713 956.8348964369286C129.54787888725446 897.0941571315873 114.63840753076568 618.6269270050329 40.5804464385626 456.6629767785663C-33.477514653640526 294.69902655209944 -64.68237244888337 292.1724964957589 -58.15683572890953 179.4079353498887C-51.63129900893563 66.64337420401841 -13.524566110943852 -10.711342085487104 71.90302269443856 -84.6069167216109C157.33061149982098 -158.5024913577348 239.36669954065735 -185.0723141524947 351.89559053692733 -175.2908229035047C464.4244815331974 -165.5093316545147 509.125522537281 -229.05353963223274 612.0416994765342 -37.65575872645957C714.9578764157875 153.7420221793136 911.4599735876081 536.2329722851664 845.8932398453444 743.4185254442054 "></path><path d="M604.1883054601868 -21.446264705702333C703.2927721424307 162.86270949985703 892.5170138634433 531.1873281203079 829.3786776671891 730.6993422734568C766.2403414709352 930.2113564266056 462.6839570621196 993.7395225604819 301.12429171816666 936.2114032294123C139.56462637421373 878.6832838983426 125.20735766055793 610.529654887587 53.892284016214205 454.5643694843226C-17.42278962812952 298.5990840810582 -47.471911949474475 296.1661292119895 -41.188061774684854 187.57803329374406C-34.90421159989518 78.98993737549858 1.791160820393202 4.500210578197084 84.05476485520586 -66.65849092325556C166.31836889001852 -137.81719242470814 245.31608329971277 -163.40294770855104 353.6772375924173 -153.98373391322735C462.0383918851219 -144.5645201179036 505.083838777943 -205.75523891126176 604.1883054601868 -21.446264705702333C703.2927721424307 162.86270949985703 892.5170138634433 531.1873281203079 829.3786776671891 730.6993422734568 "></path><path d="M596.3349114438396 -5.236770684945213C691.627667869074 171.98339682040034 873.5740541392784 526.141683955449 812.8641154890342 717.9801591027076C752.1541768387899 909.8186342499662 460.2730379841595 970.9034093786936 304.9272059226663 915.5879100218956C149.581373861173 860.272410665098 135.7763077903502 602.4323827701405 67.2041215938658 452.46576219007875C-1.368064602618574 302.49914161001686 -30.261451450065636 300.15976192821995 -24.21928782046018 195.7481312375994C-18.177124190854727 91.33650054697887 17.106887751730255 19.711763241881272 96.20650701597322 -48.710065124900154C175.30612628021618 -117.13189349168152 251.2654670587683 -141.73358126460738 355.4588846479073 -132.67664492294995C459.65230223704634 -123.61970858129251 501.04215501860506 -182.45693819029077 596.3349114438396 -5.236770684945213C691.627667869074 171.98339682040034 873.5740541392784 526.141683955449 812.8641154890342 717.9801591027076 "></path><path d="M588.4815174274922 10.97266230065577C679.9625635957173 181.10402310578752 854.6310944151135 521.0959787554344 796.349553310879 705.2609148968027C738.0680122066447 889.425851038171 457.8621189061994 948.0672351617491 308.73012012716583 894.9643557792231C159.5981213481324 841.8614763966975 146.34525792014244 594.3350496175381 80.51595917151747 450.3670938606788C14.68666042289243 306.3991381038194 -13.05099095065674 304.15333360929435 -7.250513866235508 203.91816814629863C-1.4500367818143332 103.68300268330279 32.42261468306731 34.923254870409096 108.35824917674051 -30.761700361701003C184.29388367041383 -96.44665559381116 257.21485081782384 -120.06427585581997 357.2405317033972 -111.36961696782885C457.2662125889706 -102.67495807983772 497.0004712592672 -159.15869850447598 588.4815174274922 10.97266230065577C679.9625635957173 181.10402310578752 854.6310944151135 521.0959787554344 796.349553310879 705.2609148968027 "></path><path d="M580.6281234111449 27.182125803834765C668.2974593223607 190.2246799087527 835.6881346909486 516.0503040729976 779.8349911327239 692.5417012084754C723.9818475744992 869.0330983439535 455.45119982823917 925.2310914623824 312.5330343316655 874.3408320541284C169.61486883509167 823.4505726458747 156.9142080499347 586.2377469825137 93.82779674916907 448.2684560488568C30.741385448403435 310.2991651151999 4.159469548752156 308.1469358079469 9.718260087989108 212.08823557257585C15.277050627226117 116.02953533720483 47.73834161440436 50.134777016515045 120.50999133750787 -12.813305080923783C193.28164106061138 -75.76138717836261 263.1642345768794 -98.39493992945444 359.0221787588873 -90.06255849512957C454.88012294089503 -81.73017706080475 492.95878749992926 -135.86042830108312 580.6281234111449 27.182125803834765C668.2974593223607 190.2246799087527 835.6881346909486 516.0503040729976 779.8349911327239 692.5417012084754 "></path><path d="M572.7746988772194 43.391619824592C656.6323245314258 199.34536722929602 816.7451444492056 511.00465990813905 763.3203984369907 679.8225180377267C709.8956524247758 848.6403761673141 453.04025023270094 902.3949782805939 316.3359180185869 853.7173388466119C179.63158580447293 805.03969941263 167.48312766214883 578.1404748650675 107.13960380924254 446.169848754613C46.796079956336314 314.19922264415857 21.36989953058287 312.1405685241774 26.687003524635657 220.2583335164312C32.00410751868844 128.37609850868512 63.054038028163234 65.34632968019923 132.66170298069704 5.135120717431619C202.2693679332308 -55.076088245335995 269.1135878183568 -76.72557348551072 360.8037952967991 -68.75546950485221C452.49400277524137 -60.78536552419371 488.9170732230132 -112.56212758011213 572.7746988772194 43.391619824592C656.6323245314258 199.34536722929602 816.7451444492056 511.00465990813905 763.3203984369907 679.8225180377267 "></path><path d="M564.921304860872 59.601052810192925C644.9672202580691 208.4659935146832 797.8021847250407 505.9589547081242 746.8058362588356 667.1032738318213C695.8094877926304 828.2475929555187 450.62933115474084 879.5588040636494 320.1388322230865 833.0937846039394C189.6483332914322 786.6287651442294 178.05207779194103 570.0431417124651 120.45144138689415 444.071180425213C62.85080498184732 318.0992191379611 38.580360029991766 316.1341402052517 43.65577747886033 228.42837042513042C48.73119492772889 140.72260064500915 78.36976495950029 80.55782130872711 144.8134451414644 23.08348548063077C211.25712532342845 -34.39085034746563 275.0629715774123 -55.05626807672331 362.58544235228896 -47.448441549731115C450.1079131271657 -39.84061502273886 484.8753894636751 -89.26388789429734 564.921304860872 59.601052810192925C644.9672202580691 208.4659935146832 797.8021847250407 505.9589547081242 746.8058362588356 667.1032738318213 "></path><path d="M557.0679413621028 75.8105468309501C633.3021465022905 217.58668083522662 778.8592555184539 500.91331054326554 730.2913045982586 654.3840906610726C681.7233536780633 807.8548707788796 448.21844259435886 856.7226908818611 323.9417769451643 812.4702913964229C199.66511129596972 768.2178919109847 188.6210584393114 561.9458695950187 133.76330948212387 441.9725731309693C78.90556052493639 321.99927666691974 55.79085104697873 320.12777292148235 60.62458195066313 236.59846836898578C65.45831285434747 153.06916381648932 93.68552240841547 95.76937397241124 156.96521781980982 41.031911278986115C220.24491323120424 -13.705551414438958 281.012385854046 -33.386901632779654 364.3671199253571 -26.141352559453708C447.7218539966682 -18.89580348612776 480.8337362219154 -65.96558717332636 557.0679413621028 75.8105468309501C633.3021465022905 217.58668083522662 778.8592555184539 500.91331054326554 730.2913045982586 654.3840906610726 "></path><path d="M549.2145473457556 92.02004085170728C621.6370422289338 226.70736815576993 759.916295794289 495.86766637840697 713.7767424201035 641.6649074903236C667.6371890459179 787.4621486022402 445.80752351639876 833.8865777000728 327.7446911496638 791.8467981889066C209.681858782929 749.8070186777402 199.1900085691036 553.8485974775725 147.07514705977553 439.8739658367256C94.9602855504474 325.8993341958785 73.00131154638763 324.1214056377129 77.59335590488774 244.76856631284124C82.18540026338786 165.4157269879695 109.00124933975252 110.98092663609538 169.11695998057712 58.98033707734152C229.23267062140178 6.979747518587658 286.9617696131015 -11.717535188835996 366.1487669808471 -4.834263569176358C445.33576434859265 2.0490080504832804 476.79205246257743 -42.66728645235537 549.2145473457556 92.02004085170728C621.6370422289338 226.70736815576993 759.916295794289 495.86766637840697 713.7767424201035 641.6649074903236 "></path><path d="M541.36112281183 108.2294738373082C609.9719074379989 235.827994441157 740.973305552546 490.82196117839214 697.2621497243701 628.9456632844184C653.5509938961944 767.0693653904445 443.3965739208604 811.0504034831283 331.54757483658534 771.2232439462337C219.6985757523102 731.3960844093394 209.75892818131774 545.7512643249701 160.386954119849 437.7752975073255C111.01498005838027 329.7993306896809 90.2117415282184 328.11497731878717 94.56209934153429 252.93860322154035C98.91245715485019 177.76222912429353 124.31694575351139 126.19241826462326 181.26867162376635 76.92870184054067C238.2203974940213 27.66498541645808 292.9111228545788 9.951770219951413 367.93038351875884 16.4727643859448C442.949644182939 22.99375855193813 472.75033818566135 -19.369046766540578 541.36112281183 108.2294738373082C609.9719074379989 235.827994441157 740.973305552546 490.82196117839214 697.2621497243701 628.9456632844184 "></path><path d="M533.5077287954828 124.43896785806538C598.3068031646422 244.9486817617004 722.0303458283812 485.77631701353357 680.7475875462152 616.2264801136695C639.4648292640491 746.6766432138052 440.98565484290043 788.2142903013398 335.350489041085 750.5997507387174C229.71532323926954 712.9852111760947 220.32787831111 537.6539922075237 173.6987916975006 435.67669021308166C127.06970508389128 333.69938821863957 107.42220202762724 332.1086100350178 111.53087329575897 261.1087011653957C115.63954456389064 190.1087922957738 139.63267268484844 141.40397092830733 193.42041378453365 94.87712763889601C247.20815488421886 48.350284349484696 298.86050661363436 31.62113666389513 369.71203057424884 37.77985337622215C440.56355453486333 43.93857008854923 468.7086544263234 3.9292539544304077 533.5077287954828 124.43896785806538C598.3068031646422 244.9486817617004 722.0303458283812 485.77631701353357 680.7475875462152 616.2264801136695 "></path><path d="M525.6543652967136 140.64846187882256C586.6417294088637 254.06936908224372 703.0874166217943 480.730672848675 664.2330558856381 603.5072969429204C625.3786951494819 726.283921037166 438.57476628251834 765.3781771195513 339.15343376316264 729.9762575312009C239.732101243807 694.5743379428503 230.89685895848038 529.5567200900775 187.0106597927304 433.57808291883794C143.12446062698035 337.59944574759834 124.63269304461426 336.10224275124835 128.4996777675617 269.27879910925117C132.3666624905092 202.45535546725398 154.94843013376362 156.61552359199152 205.57218646287913 112.82555343725141C256.1959427919946 69.03558328251131 304.809920890268 53.29050310783879 371.49370814731697 59.08694236649956C438.1774954043658 64.88338162516027 464.66700118456345 27.227554675401393 525.6543652967136 140.64846187882256C586.6417294088637 254.06936908224372 703.0874166217943 480.730672848675 664.2330558856381 603.5072969429204 "></path><path d="M517.8009407627881 156.85792538200167C574.9765946179289 263.190025885209 684.1444263800514 475.6849981662383 647.7184631899048 590.7880832545934C611.2924999997583 705.8911683429486 436.16381668698 742.5420334201849 342.95631745008416 709.3527338061062C249.7488182131882 676.1634341920276 241.4657785706945 521.4594174550532 200.32246685280387 431.4794451070161C159.17915513491323 341.49947275897887 141.84312302644503 340.09584494990077 145.46842120420825 277.4488665355284C149.09371938197154 214.80188812115603 170.26412654752255 171.82704573809747 217.7238981060683 130.7739487180287C265.18366966461406 89.72085169795986 310.7592741317454 74.95983903420432 373.2753246852287 80.39400083919878C435.79137523871213 85.82816264419324 460.6252869076475 50.52582487879431 517.8009407627881 156.85792538200167C574.9765946179289 263.190025885209 684.1444263800514 475.6849981662383 647.7184631899048 590.7880832545934 "></path><path d="M509.9475467464408 173.06738888518066C563.3114903445721 272.3106826881742 665.2014666558864 470.6393234838016 631.2039010117498 578.0688695662664C597.2063353676131 685.4984156487312 433.7528976090199 719.7058897208184 346.7592316545838 688.7292100810116C259.76556570014753 657.752530441205 252.03472870048677 513.3621148200288 213.63430443045547 429.38080729519413C175.23388016042423 345.3994997703594 159.05358352585387 344.0894471485533 162.43719515843293 285.61893396180574C165.820806791012 227.14842077505818 185.57985347885955 187.03856788420347 229.8756402668356 148.7223439988059C274.17142705481166 110.40612011340835 316.70865789080096 96.62917496056986 375.0569717407187 101.701059311898C433.4052855906366 106.77294366322616 456.5836031483095 73.82409508218717 509.9475467464408 173.06738888518066C563.3114903445721 272.3106826881742 665.2014666558864 470.6393234838016 631.2039010117498 578.0688695662664 "></path><path d="M502.09415273009336 189.2768829059379C551.6463860712154 281.4313700087175 646.2585069317216 465.59367931894303 614.6893388335945 565.3496863955174C583.1201707354676 665.1056934720918 431.3419785310598 696.86977653903 350.56214585908333 668.1057168734952C269.78231318710687 639.3416572079603 262.60367883027897 505.26484270258254 226.94614200810707 427.2822000009503C191.28860518593524 349.29955729931817 176.26404402526276 348.0830798647838 179.4059691126576 293.7890319056611C182.54789420005238 239.49498394653835 200.8955804101966 202.2501205478876 242.02738242760296 166.6707697971613C283.15918444500926 131.09141904643496 322.6580416498564 118.29854140451351 376.8386187962087 123.00814830217541C431.01919594256094 127.71775519983726 452.54191938897156 97.12239580315816 502.09415273009336 189.2768829059379C551.6463860712154 281.4313700087175 646.2585069317216 465.59367931894303 614.6893388335945 565.3496863955174 "></path><path d="M494.240728196168 205.48631589153882C539.9812512802805 290.5519962941047 627.3155166899786 460.5479741189281 598.1747461378613 552.6304421896123C569.0339755857442 644.7129102602964 428.93102893552157 674.0336023220855 354.36502954600473 647.4821626308225C279.7990301564881 620.9307229395597 273.1725984424931 497.16750954997997 240.2579490681806 425.1835316715503C207.34329969386812 353.1995537931207 193.47447400709348 352.0766515458581 196.3747125493041 301.9590688143603C199.2749510915147 251.84148608286233 216.21127682395553 217.46161217641549 254.17909407079213 184.6191345603604C292.1469113176288 151.7766569443054 328.6073948913338 139.96784681330098 378.6202353341205 144.3151762572965C428.63307577690716 148.6625057012921 448.5002051120555 120.42063548897295 494.240728196168 205.48631589153882C539.9812512802805 290.5519962941047 627.3155166899786 460.5479741189281 598.1747461378613 552.6304421896123 "></path><path d="M486.38736469739877 221.69579465350694C528.3161775245019 299.67266835585895 608.3725874833918 455.50231469528046 581.6602144772844 539.9112437600743C554.947841471177 624.320172824868 426.5201403751396 651.1974738815079 358.1679742680825 626.8586541645169C289.81580816102553 602.5198344475259 283.7415790898635 489.0702221737447 253.56981716341033 423.08490911851743C223.3980552369572 357.09959606329016 210.6849650240805 356.0702690032997 213.3435170211069 310.1291514994266C216.00206901813328 264.1880339955535 231.5270342728707 232.67314958131055 266.3308667491376 202.56754509992675C301.13469922540446 172.46194061854294 334.55680916796746 161.63719799845558 380.4019129071886 165.62224998878486C426.24701664640975 169.60730197911408 444.45855187029565 143.71892095115487 486.38736469739877 221.69579465350694C528.3161775245019 299.67266835585895 608.3725874833918 455.50231469528046 581.6602144772844 539.9112437600743 "></path><path d="M478.5339706810514 237.9052886742641C516.6510732511452 308.79335567640237 589.429627759227 450.4566705304219 565.1456522991293 527.1920605893254C540.8616768390316 603.9274506482288 424.1092212971794 628.3613606997196 361.97088847258215 606.2351609570005C299.83255564798486 584.1089612142814 294.3105292196557 480.9729500562985 266.88165474106194 420.9863018242737C239.4527802624682 360.99965359224893 227.8954255234894 360.06390171953024 230.31229097533156 318.29924944328195C232.72915642717373 276.5345971670337 246.8427612042077 247.88470224499468 278.4826089099049 220.51597089828215C310.1224566156021 193.14723955156956 340.506192927023 183.30656444239924 382.1835599626786 186.9293389790622C423.8609269983341 190.55211351572518 440.4168681109577 167.0172216721259 478.5339706810514 237.9052886742641C516.6510732511452 308.79335567640237 589.429627759227 450.4566705304219 565.1456522991293 527.1920605893254 "></path><path d="M470.68054614712594 254.11476743623223C504.9859384602104 317.9140277381566 570.4866375174839 445.41101110677414 548.631059603396 514.4728621597874C526.7754816893082 583.5347132128004 421.69827170164115 605.5252322591423 365.7737721595036 585.611652490695C309.84927261736607 565.6980727222478 304.8794488318698 472.8756626800632 280.1934618011354 418.8876792712408C255.50747477040107 364.89969586241864 245.1058555053201 364.0575191769717 247.28103441197806 326.4693321283483C249.45621331863606 288.8811450797249 262.15845761796663 263.09623964988975 290.6343205530941 238.46438143784843C319.1101834882216 213.83252322580717 346.45554616850035 204.97591562755383 383.96517650059036 208.2364127105505C421.47480683268043 211.49690979354716 436.3751538340416 190.31550713430784 470.68054614712594 254.11476743623223C504.9859384602104 317.9140277381566 570.4866375174839 445.41101110677414 548.631059603396 514.4728621597874 "></path><path d="M462.82716738956776 270.3242156806222C493.3208494456428 327.0346692823328 551.5436930521081 440.3653211655485 532.11651268403 501.75363321267116C512.6893323159519 563.1419452597939 419.2873678824701 582.6890733009866 369.57670162279226 564.9881135068114C319.8660353631144 547.2871537126362 315.4484142204511 464.7783447862497 293.50531463757613 416.7890262006299C271.56221505470114 368.7997076150101 262.31633126351807 368.0511061168351 264.2498236249918 334.6393842958365C266.1833159864655 301.2276624748379 277.47419980809275 278.3077465372067 302.7860779726505 256.41276145983664C328.09795613720826 234.5177763824666 352.40494518634495 226.6452362951303 385.7468388148694 229.54345592446072C419.08873244339384 232.44167555379107 432.3334853334927 213.61376207891163 462.82716738956776 270.3242156806222C493.3208494456428 327.0346692823328 551.5436930521081 440.3653211655485 532.11651268403 501.75363321267116 "></path><path d="M454.9737428556423 286.53369444259033C481.65571465470794 336.1553413440871 532.6007028103651 435.31966174190075 515.6019199882968 489.0344347831332C498.6031371662284 542.7492078243656 416.8764182869318 559.8529448604093 373.3795853097138 544.3646050405058C329.8827523324956 528.8762652206025 326.01733383266526 456.6810574100143 306.8171216976496 414.6904036475971C287.61690956263396 372.6997498851797 279.52676124534884 372.04472357427665 281.21856706163834 342.80946698090287C282.91037287792784 313.5742103875291 292.7898962218517 293.51928394210177 314.9377896158397 274.361171999403C337.08568300982773 255.20306005670415 358.35429842782236 248.31458748028496 387.52845535278124 250.850529655949C416.7026122777402 253.3864718316131 428.29177105657664 236.9120475410936 454.9737428556423 286.53369444259033C481.65571465470794 336.1553413440871 532.6007028103651 435.31966174190075 515.6019199882968 489.0344347831332 "></path><path d="M447.1203946156621 302.7431579457694C469.9906561577184 345.27599814705235 513.6577888625675 430.27398705946405 499.0874035865088 476.31522109480613C484.5170183104502 522.3564551301482 414.4655449853389 537.0168011610427 377.1825452905805 523.7410813154113C339.89954559582213 510.46536146977985 336.5863297388247 448.58375477499 320.1290050516684 412.59176583577516C303.67168036451216 376.59977689656034 296.73726752112486 376.03832577292906 298.1873867922302 350.97953440718015C299.6375060633355 325.9207430414312 308.10566892955586 308.7308060882077 327.0895775529742 292.3095672801802C346.0734861763925 275.8883284721527 364.303727963245 269.9839234066505 389.31014818463836 272.1575881286483C414.3165684060317 274.331252850646 424.25013307360587 260.2103177444865 447.1203946156621 302.7431579457694C469.9906561577184 345.27599814705235 513.6577888625675 430.27398705946405 499.0874035865088 476.31522109480613 "></path><path d="M439.26700059931477 318.9526519665266C458.32555188436163 354.3966854675957 494.7148291384026 425.2283428946055 482.5728414083537 463.5960379240572C470.43085367830486 501.96373295350895 412.05462590737875 514.1806879792543 380.98545949508014 503.1175881078948C349.91629308278146 492.05448823653524 347.1552798686169 440.4864826575438 333.44084262932006 410.4931585415314C319.72640539002316 380.499834425519 313.94772802053376 380.03195848915965 315.1561607464548 359.1496323510355C316.36459347237593 338.2673062129114 323.4213958608929 323.94235875189185 339.2413197137415 310.2579930785356C355.0612435665901 296.5736274051793 370.25311172230056 291.65328985059415 391.09179524012836 293.46467711892564C411.9304787579561 295.2760643872571 420.2084493142679 283.50861846545746 439.26700059931477 318.9526519665266C458.32555188436163 354.3966854675957 494.7148291384026 425.2283428946055 482.5728414083537 463.5960379240572 "></path><path d="M431.41357606538935 335.16211546970567C446.6604170934269 363.51734227056096 475.7718388966596 420.1826682121688 466.05824871262047 450.8768242357301C456.3446585285814 481.57098025929145 409.6436763118405 491.3445442798878 384.7883431820016 482.49406438280016C359.9330100521627 473.6435844857126 357.72419948083103 432.3891800225194 346.75264968939354 408.3945207297095C335.78109989795604 384.3998614368996 331.1581580023645 384.0255606878121 332.12490418310136 367.3196997773128C333.09165036383826 350.61383886681347 338.73709227465184 339.15388089799785 351.3930313569307 328.2063883593128C364.0489704392096 317.25889582062786 376.20246496377797 313.3226257769597 392.8734117780402 314.77173559162486C409.5443585923024 316.2208454062901 416.1667350373518 306.8068886688504 431.41357606538935 335.16211546970567C446.6604170934269 363.51734227056096 475.7718388966596 420.1826682121688 466.05824871262047 450.8768242357301 "></path><path d="M423.560182049042 351.3715942316738C434.9953128200701 372.6380143323152 456.8288791724947 415.1370087885211 449.54368653446534 438.15762580619213C442.25849389643605 461.1782428238632 407.2327572338804 468.50841583931043 388.5912573865012 461.8705559164947C369.949757539122 455.232695993679 368.2931496106233 424.29189264628405 360.06448726704514 406.29589817667664C351.83582492346704 388.29990370706923 348.36861850177337 388.0191781452536 349.09367813732604 375.48978246237914C349.8187377728787 362.96038677950463 354.0528192059889 354.3654183028929 363.54477351769805 346.15479889887916C373.0367278294072 337.9441794948654 382.15184872283345 334.9919769621143 394.6550588335301 336.0788093231132C407.1582689442268 337.1656416841121 412.12505127801387 330.1051741310323 423.560182049042 351.3715942316738C434.9953128200701 372.6380143323152 456.8288791724947 415.1370087885211 449.54368653446534 438.15762580619213 "></path><path d="M415.7068032914837 367.58105773485283C423.3302238055025 381.75867113528045 437.88593470711885 410.0913341060844 433.0291396150993 425.438412117865C428.17234452307974 440.7854901296457 404.8218534147093 445.6722721399439 392.3941868497899 441.2470321914001C379.9665202848704 436.8217922428563 378.86211499920455 416.1945900112597 373.3763401034858 404.19726036485474C367.89056520776705 392.19993071844976 365.5790942599713 392.01278034390606 366.0624673503398 383.65984988865637C366.54584044070816 375.30691943340673 369.36856139611496 369.5769404489989 375.6965309372544 364.10319417965644C382.02450047839386 358.6294479103139 388.10124774067805 356.66131288847987 396.4367211478091 357.38586779581243C404.77219455494026 358.11042270314505 408.083382777465 353.40344433442516 415.7068032914837 367.58105773485283C423.3302238055025 381.75867113528045 437.88593470711885 410.0913341060844 433.0291396150993 425.438412117865 "></path><path d="M407.85339401634735 383.79053649682095C411.6651042733567 390.87934319703476 418.9429597241649 405.0456746824367 416.51456217815513 412.71921368832705C414.08616463214537 420.3927526942174 402.4109190779601 422.8361436993665 396.1970857955004 420.62352372509457C389.98325251304067 418.4109037508227 389.43104987020774 408.0973026350244 386.6881624223484 402.0986378118219C383.945274974489 396.0999729886194 382.7895395005911 396.00639780134753 383.0312260457753 391.8299325737227C383.27291259095955 387.6534673460979 384.68427306866295 384.788477853894 387.8482578392327 382.0516047192227C391.0122426098024 379.3147315845515 394.05061624094446 378.33066407363447 398.21835294451006 378.6929415273008C402.3860896480756 379.055218980967 404.04168375933796 376.70172979660714 407.85339401634735 383.79053649682095C411.6651042733567 390.87934319703476 418.9429597241649 405.0456746824367 416.51456217815513 412.71921368832705 "></path></g></svg>