<svg xmlns="http://www.w3.org/2000/svg" version="1.1" xmlns:xlink="http://www.w3.org/1999/xlink" xmlns:svgjs="http://svgjs.dev/svgjs" viewBox="0 0 800 800"><defs><linearGradient x1="50%" y1="0%" x2="50%" y2="100%" id="uundulate-grad"><stop stop-color="hsl(162, 100%, 58%)" stop-opacity="1" offset="45%"></stop><stop stop-color="hsl(270, 73%, 53%)" stop-opacity="1" offset="100%"></stop></linearGradient></defs><g stroke-width="4" stroke="url(#uundulate-grad)" fill="none"><path d="M926.0683106326139 -499.75891203338176C1049.2907218712087 -215.74766033260926 823.0642690556399 1109.2994268188256 612.5898177656741 1336.3383201351044C402.115366475708 1563.3772134513833 39.0133556793711 874.0390275855311 -84.20905555922377 590.0277758847585C-207.43146679781864 306.0165241839859 -189.3522074695489 200.1232052876735 21.122243820416998 -26.915688028605132C231.59669511038294 -253.954581344884 802.8458993940189 -783.7701637341543 926.0683106326139 -499.75891203338176C1049.2907218712087 -215.74766033260926 823.0642690556399 1109.2994268188256 612.5898177656741 1336.3383201351044 "></path><path d="M910.1268420501742 -472.49361437647525C1029.6152408269936 -197.0887642423928 810.2441350664421 1087.8053808741502 606.1476974519296 1307.964307726299C402.0512598374171 1528.1232345784483 49.95234027733284 859.6740846479249 -69.53605849948644 584.2692345138425C-189.02445727630572 308.86438437975994 -171.4930542913168 206.17995393485126 32.603383323195544 -13.978972917298051C236.69982093770795 -234.13789976944713 790.638443273355 -747.8984645105577 910.1268420501742 -472.49361437647525C1029.6152408269936 -197.0887642423928 810.2441350664421 1087.8053808741502 606.1476974519296 1307.964307726299 "></path><path d="M894.1854039853129 -445.2281336141001C1009.9397903003567 -178.42968504670773 797.4240315948223 1066.311518034943 599.7056076557633 1279.5904784229624C401.9871837167044 1492.8694388109825 60.8913553928727 845.3093248157875 -54.863030922170935 578.5108762483953C-170.61741723721457 311.71242768100274 -153.63387059550666 212.2368856874973 44.084553343552216 -1.0420747005221074C241.8029772826112 -214.32103508854163 778.4310176702693 -712.0265821814925 894.1854039853129 -445.2281336141001C1009.9397903003567 -178.42968504670773 797.4240315948223 1066.311518034943 599.7056076557633 1279.5904784229624 "></path><path d="M878.2439354028734 -417.9627444044593C990.2643092561416 -159.7706974037569 784.6038976056243 1044.817563643002 593.2634873420188 1251.2165575668914C401.9230770784135 1457.6155514907814 71.83033999083455 830.9444734309159 -40.19003386243355 572.7524264302135C-152.21040771570165 314.56037942951116 -135.7747174172746 218.29372588740944 55.565692846330876 11.894731963519462C246.9061031099361 -194.5042619603705 766.2235615496052 -676.1547914051615 878.2439354028734 -417.9627444044593C990.2643092561416 -159.7706974037569 784.6038976056243 1044.817563643002 593.2634873420188 1251.2165575668914 "></path><path d="M862.3024668204339 -390.69723312450594C970.5888282119263 -141.1115876904937 771.7837636164263 1023.3237313213733 586.8213670282744 1222.8427587811334C401.8589704401227 1422.3617862408937 82.76932458879628 816.579744116357 -25.517036802696225 566.9940986823447C-133.80339819418867 317.4084532483323 -117.91556423904251 224.3506881576336 67.04683234910942 24.83166069787353C252.00922893726124 -174.68736676188678 754.0161054289415 -640.2828785585182 862.3024668204339 -390.69723312450594C970.5888282119263 -141.1115876904937 771.7837636164263 1023.3237313213733 586.8213670282744 1222.8427587811334 "></path><path d="M846.3609982379944 -363.4318439148651C950.9133471677112 -122.452600047543 758.9636296272286 1001.829776929432 580.3792467145304 1194.4688379250626C401.79486380183175 1387.1078989206935 93.70830918675802 802.214892731485 -10.844039742958842 561.2356488641631C-115.3963886726757 320.25640499684096 -100.05641106081043 230.40752835754563 78.52797185188797 37.7684673619151C257.11235476458637 -154.87059363371554 741.8086493082774 -604.4110877821872 846.3609982379944 -363.4318439148651C950.9133471677112 -122.452600047543 758.9636296272286 1001.829776929432 580.3792467145304 1194.4688379250626 "></path><path d="M830.4195296555549 -336.1664852228024C931.2378661234961 -103.7936429221703 746.1434956380306 980.3357920199126 573.9371264007858 1166.0948865514135C401.73075716354094 1351.8539810829143 104.64729378471975 787.8500108290352 3.828957316778542 555.4771685284031C-96.98937915116272 323.104326227771 -82.19725788257836 236.4643380398793 90.00911135466652 50.70524350837843C262.2154805919113 -135.05385102312243 729.6011931876137 -568.5393275234344 830.4195296555549 -336.1664852228024C931.2378661234961 -103.7936429221703 746.1434956380306 980.3357920199126 573.9371264007858 1166.0948865514135 "></path><path d="M814.4780610731152 -308.90106549558345C911.5623850792808 -85.13462476164148 733.3233616488328 958.8418681455496 567.4950060870414 1137.7209962129207C401.66665052525013 1316.600124280292 115.5862783826816 773.4851899617418 18.501954376515926 549.7187492277997C-78.58236962964975 325.9523084938578 -64.33810470434628 242.52120875736932 101.49025085744506 63.64208068999801C267.3186064192364 -115.23704737737307 717.3937370669496 -532.6675062295254 814.4780610731152 -308.90106549558345C911.5623850792808 -85.13462476164148 733.3233616488328 958.8418681455496 567.4950060870414 1137.7209962129207 "></path><path d="M798.5365924906757 -281.63558473320825C891.8869040350658 -66.47554556595628 720.5032276596348 937.3480053063429 561.052885773297 1109.3471669095845C401.6025438869592 1281.346328512826 126.52526298064333 759.1204301296045 33.17495143625331 543.9603909623524C-60.17536010813677 328.8003517951006 -46.4789515261142 248.5781405100156 112.97139036022361 76.57897890677395C272.4217322465614 -95.42018269646746 705.1862809462857 -496.79562390046016 798.5365924906757 -281.63558473320825C891.8869040350658 -66.47554556595628 720.5032276596348 937.3480053063429 561.052885773297 1109.3471669095845 "></path><path d="M782.595123908236 -254.37013448841117C872.2114229908507 -47.816496887849326 707.6830936704368 915.8541119495578 554.6107654595527 1080.9733070886698C401.5384372486683 1246.0925022277816 137.46424757860507 744.7556397798892 47.847948495990636 538.2020021793271C-41.7683505866238 331.6483645787654 -28.619798347882124 254.63504174508364 124.45252986300216 89.51584660597177C277.52485807388643 -75.60334853314009 692.9788248256218 -460.92377208897295 782.595123908236 -254.37013448841117C872.2114229908507 -47.816496887849326 707.6830936704368 915.8541119495578 554.6107654595527 1080.9733070886698 "></path><path d="M766.6536553257965 -227.10474527877034C852.5359419466356 -29.15750924489862 694.8629596812389 894.3601575576167 548.1686451458082 1052.5993862325988C401.4743306103775 1210.8386149075811 148.40323217656686 730.3907883950174 62.52094555572802 532.4435523611455C-23.36134106511082 334.4963163272737 -10.760645169650104 260.69188194499554 135.9336693657807 102.45265327001334C282.62798390121156 -55.78657540496886 680.7713687049577 -425.05198131264206 766.6536553257965 -227.10474527877034C852.5359419466356 -29.15750924489862 694.8629596812389 894.3601575576167 548.1686451458082 1052.5993862325988 "></path><path d="M750.7122172609352 -199.83929503397326C832.8604914199987 -10.49846056679155 682.0428562096195 872.8662642008317 541.726555349642 1024.225526411684C401.4102544896647 1175.5847886225367 159.34224729210678 716.025998045302 77.19397313304353 526.68516357812C-4.954301026019721 337.3443291109385 7.098538526160098 266.7487831800637 147.41483938613737 115.38952096921105C287.7311402461147 -35.969741241641486 668.563943101872 -389.1801295011549 750.7122172609352 -199.83929503397326C832.8604914199987 -10.49846056679155 682.0428562096195 872.8662642008317 541.726555349642 1024.225526411684 "></path><path d="M734.7707486784957 -172.57390582433243C813.1850103757833 8.16052707615927 669.2227222204214 851.3723098088906 535.2844350358976 995.8516055556133C401.34614785137387 1140.3309013023363 170.2812318900685 701.6611466604304 91.86697019278085 520.9267137599386C13.452708495493255 340.192280859447 24.957691704392175 272.8056233799756 158.89597888891592 128.32632763325273C292.8342660734397 -16.15296811347025 656.356486981208 -353.308338724824 734.7707486784957 -172.57390582433243C813.1850103757833 8.16052707615927 669.2227222204214 851.3723098088906 535.2844350358976 995.8516055556133 "></path><path d="M718.8292800960562 -145.30857764984785C793.5095293315683 26.819453683953725 656.4025882312235 829.878294381793 528.8423147221532 967.4776236643863C401.28204121308295 1105.0769529469794 181.2202164880303 687.2962342404023 106.53996725251824 515.168202906601C31.85971801700623 343.0401715727993 42.81684488262425 278.86240254473114 170.37711839169452 141.26307326213794C297.93739190076474 3.6637439795447335 644.1490308605441 -317.43660898364936 718.8292800960562 -145.30857764984785C793.5095293315683 26.819453683953725 656.4025882312235 829.878294381793 528.8423147221532 967.4776236643863 "></path><path d="M702.8877809960386 -118.04309688747264C773.8340177697751 45.478532879638806 643.5824237244475 808.3844315425863 522.4001638908308 939.1037943610497C401.217904057214 1069.8231571795134 192.15917056841397 672.9314744082649 121.2129337946775 509.40984464115354C50.266697020941024 345.8882148740421 60.675967543278205 284.9193342973774 181.85822737689494 154.19997147891377C303.0404872105116 23.480608660450343 631.941544222302 -281.5647266545841 702.8877809960386 -118.04309688747264C773.8340177697751 45.478532879638806 643.5824237244475 808.3844315425863 522.4001638908308 939.1037943610497 "></path><path d="M686.9463734487553 -90.77764664267556C754.158597760716 64.13758155774576 630.7623507704059 786.8905381858012 515.9581046122426 910.729934540135C401.15385845407945 1034.569330894469 203.09821620153195 658.5666840585495 135.88599188957113 503.6514558581282C68.67376757761025 348.73622765770676 78.53518175666653 290.97623553244557 193.33942791482974 167.1368391781116C308.143674072993 43.297442823777715 619.7341491367944 -245.6928748430969 686.9463734487553 -90.77764664267556C754.158597760716 64.13758155774576 630.7623507704059 786.8905381858012 515.9581046122426 910.729934540135 "></path><path d="M671.0049048663158 -63.51213536272223C734.483116716501 82.79669127100908 617.9422167812079 765.3967058641724 509.5159842984982 882.3561357543767C401.08975181578853 999.3155656445808 214.0372007994937 644.2019547439904 150.5589889493085 497.893128110259C87.08077709912322 351.5843014765278 96.39433493489855 297.03319780267 204.8205674176083 180.07376791246566C313.246799900318 63.11433802226145 607.5266930161306 -209.82096199645352 671.0049048663158 -63.51213536272223C734.483116716501 82.79669127100908 617.9422167812079 765.3967058641724 509.5159842984982 882.3561357543767 "></path><path d="M655.0634362838762 -36.24680718823765C714.8076356722859 101.45561787880365 605.1220827920101 743.9026904370751 503.07386398475387 853.9821538631495C401.0256451774976 964.0616172892242 224.97618539745548 629.8370423239626 165.23198600904584 492.1346172569213C105.4877866206362 354.43219218987997 114.25348811313063 303.0899769674256 216.30170692038683 193.01051354135097C318.34992572764304 82.93105011527643 595.3192368954666 -173.94923225527884 655.0634362838762 -36.24680718823765C714.8076356722859 101.45561787880365 605.1220827920101 743.9026904370751 503.07386398475387 853.9821538631495 "></path><path d="M639.1219677014367 -8.981356943440574C695.1321546280708 120.1146665569106 592.3019488028121 722.40879708029 496.6317436710094 825.6082940422348C400.9615385392067 928.8077910041798 235.91516999541727 615.472251974247 179.90498306878322 486.3762284738958C123.89479614214918 357.28020497354464 132.1126412913627 309.1468782024938 227.78284642316544 205.9473812405488C323.45305155496806 102.7478842786038 583.1117807748026 -138.0773804437917 639.1219677014367 -8.981356943440574C695.1321546280708 120.1146665569106 592.3019488028121 722.40879708029 496.6317436710094 825.6082940422348 "></path><path d="M623.1804991189972 18.284032266200256C675.4566735838556 138.7736541998613 579.4818148136143 700.9148426883489 490.1896233572652 797.2343731861642C400.8974319009159 893.5539036839796 246.854154593379 601.1074005893753 194.5779801285206 480.61777865571435C142.30180566366215 360.1281567220533 149.97179446959478 315.2037184024057 239.26398592594398 218.88418790459036C328.5561773822932 122.56465740677504 570.9043246541387 -102.2055896674608 623.1804991189972 18.284032266200256C675.4566735838556 138.7736541998613 579.4818148136143 700.9148426883489 490.1896233572652 797.2343731861642 "></path><path d="M607.2390457953467 45.54945199341921C655.7812077984295 157.4326723603902 566.6616960832055 679.4209188139857 483.7475183023098 768.8604828476714C400.83334052141413 858.300046881357 257.79315445012986 586.7425797220818 209.250992447047 474.85935935511077C160.7088304439642 362.97613898813984 167.83096290661592 321.2605891198956 250.7451406875116 231.82102508620994C333.65931846840726 142.3814610525244 558.6968837922639 -66.33376837355178 607.2390457953467 45.54945199341921C655.7812077984295 157.4326723603902 566.6616960832055 679.4209188139857 483.7475183023098 768.8604828476714 "></path><path d="M591.2975772129071 72.81487172063817C636.1057267542144 176.0916905209191 553.8415620940075 657.9269949396227 477.30539798856535 740.4865925091785C400.7692338831232 823.0461900787345 268.7321390480916 572.3777588547883 223.92398950678438 469.1009400545073C179.11583996547716 365.8241212542264 185.690116084848 327.3174598373855 262.22628019029014 244.75786226782964C338.7624442957323 162.1982646982737 546.4894276716 -30.461947079642755 591.2975772129071 72.81487172063817C636.1057267542144 176.0916905209191 553.8415620940075 657.9269949396227 477.30539798856535 740.4865925091785 "></path><path d="M575.3561086304676 100.08035248301337C616.4302457099993 194.75076971660422 541.0214281048097 636.4331321004158 470.863277674821 712.112763205842C400.7051272448323 787.7923943112683 279.6711236460534 558.012999022651 238.59698656652176 463.34258178906C197.52284948699014 368.6721645554692 203.54926926308008 333.3743915900318 273.7074196930687 257.69476048460547C343.86557012305735 182.01512937917926 534.2819715509361 5.409935249422574 575.3561086304676 100.08035248301337C616.4302457099993 194.75076971660422 541.0214281048097 636.4331321004158 470.863277674821 712.112763205842 "></path><path d="M559.4146553068172 127.3457416926542C596.7547799245732 213.409757359555 528.2013093744008 614.9391777084746 464.42117261986573 683.7388423497713C400.64103586533054 752.5385069910678 290.6101235028042 543.6481476377793 253.2699988850482 457.5841319708786C215.92987426729218 371.52011630397783 221.40843770010116 339.4312317899437 285.1885744546363 270.63156714864704C348.96871120917143 201.8319025073505 522.0745306890611 41.28172602575347 559.4146553068172 127.3457416926542C596.7547799245732 213.409757359555 528.2013093744008 614.9391777084746 464.42117261986573 683.7388423497713 "></path><path d="M543.4731867243777 154.61113090229503C577.079298880358 232.0687450025057 515.3811753852029 593.4452233165334 457.9790523061213 655.3649214937003C400.5769292270397 717.2846196708673 301.549108100766 529.2832962529076 267.94299594478554 451.8256821526969C234.33688378880515 374.36806805248625 239.26759087833324 345.4880719898556 296.66971395741484 283.5683738126886C354.0718370364965 221.64867563552167 509.86707456839713 77.15351680208437 543.4731867243777 154.61113090229503C577.079298880358 232.0687450025057 515.3811753852029 593.4452233165334 457.9790523061213 655.3649214937003 "></path><path d="M527.5317181419381 181.87661166467024C557.4038178361429 250.7278241981909 502.56104139600507 571.9513604773266 451.53693199237694 626.9910921903638C400.5128225887488 682.0308239034011 312.48809269872777 514.9185364207704 282.6159930045229 446.0673238872497C252.74389331031813 377.21611135372905 257.1267440565653 351.5450037425019 308.15085346019345 296.50527202946455C359.1749628638215 241.46554031642728 497.65961844773324 113.02539913114964 527.5317181419381 181.87661166467024C557.4038178361429 250.7278241981909 502.56104139600507 571.9513604773266 451.53693199237694 626.9910921903638 "></path><path d="M511.5902495594986 209.141985615522C537.7283367919279 269.38679658235253 489.7409074068071 550.4573908265963 445.0948116786326 598.617156075504C400.44871595045794 646.7769213244117 323.4270772966895 500.55366977710946 297.2889900642603 440.30885881027905C271.1509028318311 380.0640478434485 274.9858972347974 357.6018286836247 319.631992962972 309.44206343471706C364.2780886911466 261.2822981858094 485.45216232706935 148.89717464869148 511.5902495594986 209.141985615522C537.7283367919279 269.38679658235253 489.7409074068071 550.4573908265963 445.0948116786326 598.617156075504 "></path><path d="M495.64876571826994 236.40743586031908C518.0528404889236 288.04584526045954 476.92075815882015 528.9634974698113 438.6526761060991 570.2432962545893C400.384594053378 611.5230950393673 334.36604663586223 486.1888794273941 311.9619718652086 434.5504700272536C289.55789709455496 382.9120606271132 292.8450351542404 363.65872991869276 331.1131172069615 322.3789311339148C369.38119925968255 281.0991323491369 473.2446909476164 184.76902646017862 495.64876571826994 236.40743586031908C518.0528404889236 288.04584526045954 476.92075815882015 528.9634974698113 438.6526761060991 570.2432962545893 "></path><path d="M479.70729713583046 263.67288610511616C498.3773594447084 306.70489393856656 464.1006241696223 507.46960411302643 432.21055579235474 541.8694364336748C400.32048741508714 576.269268754323 345.30503123382397 471.82408907767876 326.63496892494595 428.79208124422837C307.96490661606794 385.760073410778 310.7041883324725 369.7156311537609 342.59425670974 335.3157988331126C374.4843250870076 300.9159665124643 461.0372348269525 220.64087827166577 479.70729713583046 263.67288610511616C498.3773594447084 306.70489393856656 464.1006241696223 507.46960411302643 432.21055579235474 541.8694364336748 "></path><path d="M463.76585907096904 290.9383058323351C478.70190891807147 325.36391209909544 451.28052069800253 485.97568023866324 425.76846599618847 513.4955460951819C400.2564112943744 541.0154119517006 356.2440463493639 457.4592682103852 341.30799650226146 423.03366194362485C326.37194665515904 388.6080556768645 328.5633720282827 375.77250187125094 354.0754267300967 348.2526360147323C379.58748143191076 320.7327701582136 448.8298092238666 256.5126995655748 463.76585907096904 290.9383058323351C478.70190891807147 325.36391209909544 451.28052069800253 485.97568023866324 425.76846599618847 513.4955460951819 "></path><path d="M447.8243904885295 318.20374081834314C459.02642787385633 344.0229455184134 438.4603867088046 464.48177162308923 419.32634568244407 485.1216710154782C400.19230465608354 505.7615704078672 367.1830309473256 443.09446260188065 355.98099356199884 417.2752579018104C344.778956176672 391.4560532017402 346.4225252065147 381.82938784753 365.5565662328753 361.18948845514103C384.6906072592358 340.54958906275203 436.6223531032027 292.38453611827293 447.8243904885295 318.20374081834314C459.02642787385633 344.0229455184134 438.4603867088046 464.48177162308923 419.32634568244407 485.1216710154782 "></path><path d="M431.88292190609 345.4691605455621C439.3509468296412 362.6819636789422 425.64025271960674 442.98784774872615 412.88422536869973 456.7477806769855C400.12819801779267 470.5077136052448 378.1220155452874 428.7296417345871 370.6539906217362 411.5168386012069C363.185965698185 394.3040354678268 364.2816783847468 387.88625856502 377.03770573565384 374.12632563676067C389.79373308656085 360.36639270850134 424.4148969825388 328.25635741218196 431.88292190609 345.4691605455621C439.3509468296412 362.6819636789422 425.64025271960674 442.98784774872615 412.88422536869973 456.7477806769855 "></path><path d="M415.94146858243954 372.73458027278105C419.67548104421513 381.3409818394711 412.82013398919787 421.4939238743631 406.4421203137444 428.37389033849274C400.06410663829087 435.2538568026224 389.0610154020382 414.36482086729353 385.3270029402626 405.75841930060346C381.592990478487 397.1520177339134 382.1408468217679 393.94312928251 388.51886049722145 387.0631628183803C394.896874172675 380.1831963542507 412.20745612066395 364.128178706091 415.94146858243954 372.73458027278105C419.67548104421513 381.3409818394711 412.82013398919787 421.4939238743631 406.4421203137444 428.37389033849274 "></path></g></svg>